<svg width="247" height="59" viewBox="0 0 247 59" fill="none" xmlns="http://www.w3.org/2000/svg">
<path d="M0 6.77824V0.36026H25.9233V6.77824H0ZM9.62697 35.7178V3.25086H16.2879V35.7178H9.62697Z" fill="black"/>
<path d="M41.2476 36.0865C37.1421 36.0865 33.975 34.9386 31.7296 32.6429C29.4841 30.3472 28.3614 27.113 28.3614 22.9237V0.351898H35.0223V23.0913C35.0223 25.1189 35.567 26.6941 36.6478 27.8084C37.737 28.9228 39.2619 29.4842 41.2476 29.4842C43.2417 29.4842 44.7834 28.9228 45.881 27.8084C46.9785 26.6857 47.5232 25.1189 47.5232 23.0913V0.351898H54.1841V22.9237C54.1841 27.1046 53.053 30.3472 50.8076 32.6429C48.5537 34.9386 45.3615 36.0865 41.2476 36.0865Z" fill="black"/>
<path d="M61.4819 35.7178V0.335175H68.1428V35.7178H61.4819ZM64.1295 21.491V15.0731H76.4376C77.4765 15.0731 78.306 14.696 78.9344 13.9336C79.5544 13.1711 79.8812 12.1657 79.8979 10.9173C79.8979 9.66888 79.5879 8.66346 78.9596 7.90101C78.3312 7.13857 77.4933 6.76153 76.446 6.76153H64.1379V0.343549H76.9822C78.9428 0.343549 80.6604 0.77924 82.1266 1.65899C83.5929 2.53036 84.7324 3.77038 85.5451 5.35392C86.3578 6.94585 86.76 8.79752 86.76 10.9257C86.76 13.0538 86.3494 14.9055 85.5283 16.4974C84.7072 18.0893 83.5678 19.321 82.1099 20.1924C80.652 21.0637 78.9428 21.5078 76.9822 21.5078H64.1295V21.491ZM80.1577 35.7178L71.5697 20.3935L78.6914 19.2707L88.2262 35.7095H80.1577V35.7178Z" fill="black"/>
<path d="M93.9488 35.7178V0.351898H100.61V35.7178H93.9488ZM96.3786 6.77827V0.360285H117.174V6.77827H96.3786ZM96.3786 21.6837V15.2657H114.493V21.6837H96.3786Z" fill="black"/>
<path d="M132.909 36.0865C131.225 36.0865 129.574 35.9189 127.957 35.5754C126.34 35.2319 124.832 34.7375 123.425 34.0756C122.017 33.4221 120.743 32.6261 119.604 31.7045L122.696 26.2081C124.053 27.3309 125.628 28.1939 127.413 28.7971C129.197 29.4004 131.032 29.7104 132.909 29.7104C135.079 29.7104 136.763 29.3417 137.97 28.6044C139.168 27.8671 139.771 26.8282 139.771 25.4792V25.4541C139.771 24.4319 139.47 23.6527 138.875 23.1081C138.271 22.5635 137.484 22.1613 136.503 21.9016C135.523 21.6418 134.459 21.424 133.303 21.248C131.929 21.0386 130.53 20.7705 129.122 20.4604C127.714 20.1504 126.416 19.6394 125.234 18.9523C124.053 18.2653 123.098 17.2766 122.377 15.9947C121.657 14.7128 121.296 13.0035 121.296 10.867V10.8419C121.296 7.38989 122.428 4.71713 124.698 2.83196C126.969 0.946781 130.178 0 134.333 0C136.244 0 138.188 0.318393 140.173 0.963542C142.151 1.60031 143.994 2.51357 145.695 3.70332L142.871 9.3421C141.506 8.38695 140.09 7.64963 138.598 7.13854C137.115 6.62745 135.691 6.37609 134.333 6.37609C132.289 6.37609 130.706 6.71123 129.591 7.38151C128.477 8.0518 127.915 8.99858 127.915 10.2135V10.2386C127.915 11.3697 128.251 12.2327 128.913 12.8192C129.574 13.4057 130.446 13.833 131.518 14.1179C132.591 14.4028 133.739 14.6625 134.97 14.9055C136.336 15.1652 137.685 15.4836 139.034 15.869C140.383 16.2544 141.614 16.799 142.729 17.5112C143.852 18.2234 144.74 19.2037 145.402 20.4521C146.063 21.7005 146.399 23.3259 146.399 25.32V25.3703C146.399 28.772 145.226 31.4112 142.871 33.288C140.508 35.1481 137.191 36.0865 132.909 36.0865Z" fill="#F24E1E"/>
<path d="M149.055 35.7178L162.578 0.351898H166.809L180.332 35.7178H173.16L164.697 11.5708L156.235 35.7178H149.055ZM155.556 30.0539V23.6359H174.165V30.0539H155.556Z" fill="#F24E1E"/>
<path d="M184.714 35.6927V0.351898H192.858L206.012 27.4482L205.426 28.0766V0.351898H211.802V35.6927H203.607L190.495 9.01534L191.081 8.38695V35.701H184.714V35.6927Z" fill="#F24E1E"/>
<path d="M219.585 35.7178V0.351898H226.246V35.7178H219.585ZM222.945 35.7178V29.2998H231.433C233.619 29.2998 235.312 28.772 236.518 27.7079C237.717 26.6438 238.32 25.1608 238.32 23.2421V12.836C238.32 10.9089 237.717 9.41751 236.518 8.36181C235.32 7.30611 233.619 6.77827 231.433 6.77827H222.945V0.360285H231.29C235.731 0.360285 239.166 1.46625 241.587 3.67819C244.009 5.89013 245.224 9.00696 245.224 13.0287V23.0494C245.224 25.563 244.704 27.7749 243.665 29.6769C242.626 31.5788 241.076 33.0618 239.007 34.1259C236.937 35.19 234.357 35.7178 231.257 35.7178H222.945Z" fill="#F24E1E"/>
<path d="M124.003 58.4656C123.089 58.4656 122.293 58.2645 121.615 57.8624C120.928 57.4602 120.4 56.8904 120.023 56.1615C119.646 55.4326 119.453 54.578 119.453 53.5977V50.0116C119.453 49.0314 119.637 48.1684 120.023 47.4394C120.4 46.7105 120.928 46.1407 121.615 45.7386C122.302 45.3364 123.098 45.1353 124.003 45.1353C124.757 45.1353 125.452 45.2861 126.072 45.5961C126.692 45.9061 127.22 46.3334 127.647 46.8864C128.066 47.4394 128.36 48.093 128.502 48.8303H127.212C127.069 48.3275 126.835 47.8919 126.5 47.5148C126.164 47.1378 125.787 46.8529 125.352 46.6434C124.916 46.434 124.464 46.3334 124.003 46.3334C123.022 46.3334 122.243 46.6686 121.64 47.3389C121.045 48.0092 120.743 48.8973 120.743 50.0116V53.5977C120.743 54.7036 121.045 55.5918 121.64 56.262C122.235 56.9323 123.022 57.2675 124.003 57.2675C124.698 57.2675 125.352 57.0496 125.963 56.6139C126.575 56.1782 126.994 55.5666 127.212 54.7623H128.502C128.351 55.508 128.066 56.1531 127.639 56.7061C127.212 57.2591 126.692 57.6948 126.064 57.9964C125.452 58.3148 124.765 58.4656 124.003 58.4656Z" fill="black"/>
<path d="M135.439 58.4656C134.459 58.4656 133.63 58.2729 132.951 57.8958C132.272 57.5188 131.744 56.9742 131.384 56.2536C131.024 55.5331 130.848 54.6617 130.848 53.6479V49.9446C130.848 48.9224 131.024 48.051 131.384 47.3305C131.744 46.6183 132.264 46.0653 132.951 45.6883C133.638 45.3113 134.468 45.1185 135.439 45.1185C136.411 45.1185 137.249 45.3113 137.928 45.6883C138.615 46.0653 139.134 46.6099 139.495 47.3305C139.855 48.0427 140.031 48.914 140.031 49.9446V53.6479C140.031 54.6701 139.855 55.5331 139.495 56.2536C139.134 56.9742 138.615 57.5188 137.928 57.8958C137.241 58.2729 136.42 58.4656 135.439 58.4656ZM135.439 57.2591C136.487 57.2591 137.299 56.9491 137.878 56.329C138.456 55.709 138.741 54.8377 138.741 53.7066V49.8776C138.741 48.7548 138.456 47.8751 137.878 47.2551C137.299 46.6351 136.487 46.325 135.439 46.325C134.392 46.325 133.579 46.6351 133.001 47.2551C132.423 47.8751 132.138 48.7465 132.138 49.8776V53.7066C132.138 54.8293 132.423 55.709 133.001 56.329C133.579 56.9491 134.392 57.2591 135.439 57.2591Z" fill="black"/>
<path d="M142.997 58.3232V45.261H144.304L151.887 57.0329L151.359 56.6726V45.261H152.649V58.3232H151.325L143.583 46.4591L144.287 46.9702V58.3232H142.997Z" fill="black"/>
<path d="M159.813 58.4656C159.176 58.4656 158.581 58.4069 158.02 58.2896C157.458 58.1723 156.939 57.988 156.445 57.7534C155.95 57.5188 155.498 57.2172 155.07 56.8569L155.85 55.8347C156.403 56.3123 157.006 56.6726 157.659 56.9155C158.313 57.1585 159.033 57.2758 159.804 57.2758C160.927 57.2758 161.798 57.058 162.41 56.6139C163.022 56.1698 163.323 55.5498 163.323 54.7455V54.7371C163.323 54.1925 163.173 53.7736 162.871 53.4803C162.569 53.1871 162.184 52.9692 161.698 52.8184C161.212 52.6676 160.692 52.5419 160.131 52.433C159.612 52.3325 159.084 52.2152 158.564 52.0979C158.045 51.9806 157.559 51.8046 157.123 51.5784C156.688 51.3522 156.336 51.0338 156.076 50.6232C155.816 50.2127 155.682 49.6681 155.682 48.9894V48.981C155.682 47.7662 156.084 46.8194 156.897 46.1575C157.701 45.4872 158.849 45.152 160.324 45.152C161.019 45.152 161.698 45.261 162.368 45.4872C163.038 45.7134 163.692 46.0569 164.337 46.5177L163.575 47.5315C163.013 47.1378 162.46 46.8445 161.924 46.6434C161.388 46.4507 160.852 46.3502 160.324 46.3502C159.26 46.3502 158.43 46.5764 157.844 47.0205C157.257 47.4645 156.964 48.1013 156.964 48.9224V48.9308C156.964 49.467 157.132 49.8776 157.467 50.1624C157.802 50.4473 158.229 50.6567 158.757 50.7992C159.285 50.9416 159.846 51.0757 160.441 51.193C160.944 51.2935 161.447 51.4108 161.941 51.5533C162.435 51.6873 162.879 51.88 163.281 52.123C163.684 52.366 164.002 52.6844 164.245 53.0949C164.488 53.5055 164.605 54.0333 164.605 54.6785V54.6952C164.605 55.9017 164.186 56.8318 163.348 57.4937C162.519 58.1388 161.338 58.4656 159.813 58.4656Z" fill="black"/>
<path d="M165.426 46.4675V45.261H174.651V46.4675H165.426ZM169.389 58.3315V45.7972H170.68V58.3315H169.389Z" fill="black"/>
<path d="M176.084 58.3315V45.2526H177.374V58.3315H176.084ZM176.88 52.8017V51.5952H181.337C182.075 51.5952 182.661 51.3606 183.105 50.8914C183.549 50.4222 183.775 49.8022 183.775 49.0229C183.775 48.2521 183.558 47.6321 183.113 47.1545C182.669 46.677 182.075 46.4507 181.337 46.4507H176.88V45.2442H181.27C182.033 45.2442 182.695 45.4034 183.264 45.7134C183.834 46.0234 184.278 46.4675 184.588 47.0288C184.907 47.5902 185.057 48.2521 185.057 49.0146C185.057 49.7687 184.898 50.4306 184.58 51.0003C184.261 51.57 183.817 52.0057 183.256 52.3241C182.686 52.6425 182.024 52.7933 181.262 52.7933H176.88V52.8017ZM184.069 58.3315L181.078 52.3995L182.276 51.989L185.619 58.3315H184.069Z" fill="black"/>
<path d="M192.489 58.4656C190.956 58.4656 189.808 58.0718 189.045 57.2758C188.283 56.4799 187.906 55.2901 187.906 53.6898V45.261H189.196V53.7569C189.196 54.9047 189.473 55.7593 190.017 56.3291C190.562 56.8988 191.383 57.1837 192.489 57.1837C193.595 57.1837 194.425 56.8988 194.978 56.3291C195.522 55.7593 195.799 54.8963 195.799 53.7569V45.261H197.089V53.6898C197.089 55.2817 196.703 56.4799 195.941 57.2758C195.179 58.0718 194.031 58.4656 192.489 58.4656Z" fill="black"/>
<path d="M204.42 58.4656C203.507 58.4656 202.711 58.2645 202.032 57.8624C201.345 57.4602 200.817 56.8904 200.44 56.1615C200.063 55.4326 199.871 54.578 199.871 53.5977V50.0116C199.871 49.0314 200.055 48.1684 200.44 47.4394C200.817 46.7105 201.345 46.1407 202.032 45.7386C202.719 45.3364 203.515 45.1353 204.42 45.1353C205.174 45.1353 205.87 45.2861 206.49 45.5961C207.11 45.9061 207.638 46.3334 208.065 46.8864C208.484 47.4394 208.777 48.093 208.919 48.8303H207.629C207.487 48.3275 207.252 47.8919 206.917 47.5148C206.582 47.1378 206.205 46.8529 205.769 46.6434C205.333 46.434 204.881 46.3334 204.42 46.3334C203.44 46.3334 202.661 46.6686 202.057 47.3389C201.463 48.0092 201.161 48.8973 201.161 50.0116V53.5977C201.161 54.7036 201.463 55.5918 202.057 56.262C202.652 56.9323 203.44 57.2675 204.42 57.2675C205.116 57.2675 205.769 57.0496 206.381 56.6139C206.992 56.1782 207.411 55.5666 207.629 54.7623H208.919C208.769 55.508 208.484 56.1531 208.056 56.7061C207.629 57.2591 207.11 57.6948 206.481 57.9964C205.87 58.3148 205.183 58.4656 204.42 58.4656Z" fill="black"/>
<path d="M209.732 46.4675V45.261H218.957V46.4675H209.732ZM213.695 58.3315V45.7972H214.986V58.3315H213.695Z" fill="black"/>
<path d="M221.956 45.261V58.3315H220.666V45.261H221.956Z" fill="black"/>
<path d="M229.79 58.4656C228.81 58.4656 227.981 58.2729 227.302 57.8958C226.623 57.5188 226.095 56.9742 225.735 56.2536C225.375 55.5331 225.199 54.6617 225.199 53.6479V49.9446C225.199 48.9224 225.375 48.051 225.735 47.3305C226.095 46.6183 226.615 46.0653 227.302 45.6883C227.989 45.3113 228.818 45.1185 229.79 45.1185C230.762 45.1185 231.6 45.3113 232.279 45.6883C232.966 46.0653 233.485 46.6099 233.846 47.3305C234.206 48.0427 234.382 48.914 234.382 49.9446V53.6479C234.382 54.6701 234.206 55.5331 233.846 56.2536C233.485 56.9742 232.966 57.5188 232.279 57.8958C231.592 58.2729 230.762 58.4656 229.79 58.4656ZM229.79 57.2591C230.838 57.2591 231.65 56.9491 232.229 56.329C232.807 55.709 233.092 54.8377 233.092 53.7066V49.8776C233.092 48.7548 232.807 47.8751 232.229 47.2551C231.65 46.6351 230.838 46.325 229.79 46.325C228.743 46.325 227.93 46.6351 227.352 47.2551C226.774 47.8751 226.489 48.7465 226.489 49.8776V53.7066C226.489 54.8293 226.774 55.709 227.352 56.329C227.93 56.9491 228.735 57.2591 229.79 57.2591Z" fill="black"/>
<path d="M237.348 58.3232V45.261H238.655L246.238 57.0329L245.71 56.6726V45.261H247V58.3232H245.676L237.934 46.4591L238.638 46.9702V58.3232H237.348Z" fill="black"/>
<path d="M107.924 45.1269H0V58.3315H107.924V45.1269Z" fill="black"/>
</svg>
